<svg width="20" height="20" viewBox="0 0 20 20" fill="none" xmlns="http://www.w3.org/2000/svg" color="#e42575"><path d="M5 3.125L5 16.875C5 17.5654 5.55964 18.125 6.25 18.125L13.75 18.125C14.4404 18.125 15 17.5654 15 16.875L15 3.125C15 2.43464 14.4404 1.875 13.75 1.875L6.25 1.875C5.55965 1.875 5 2.43464 5 3.125Z" fill="#F5F3F7" stroke="#F5F3F7" stroke-linecap="round" stroke-linejoin="round"></path><path d="M9.9375 14.25C9.38522 14.25 8.9375 14.6977 8.9375 15.25C8.9375 15.8023 9.38522 16.25 9.9375 16.25C10.4898 16.25 10.9375 15.8023 10.9375 15.25C10.9375 14.6977 10.4898 14.25 9.9375 14.25Z" fill="#120C18"></path></svg>