<svg width="20" height="20" viewBox="0 0 20 20" fill="none" xmlns="http://www.w3.org/2000/svg" color="#e42575"><path d="M10.3033 15.9856L7.04083 15.9259C5.98451 15.9051 4.92557 15.9466 3.88996 15.7312C2.31456 15.4094 2.20296 13.8314 2.08617 12.5077C1.92526 10.6468 1.98755 8.75212 2.29122 6.90675C2.46266 5.8713 3.13731 5.25345 4.18065 5.18621C7.70266 4.94221 11.2481 4.97112 14.7623 5.08496C15.1335 5.0954 15.5071 5.15244 15.8731 5.21736C17.6796 5.53402 17.7237 7.32227 17.8408 8.82764C17.9575 10.3485 17.9082 11.8773 17.685 13.3878C17.5059 14.6385 17.1633 15.6873 15.7174 15.7886C13.9057 15.921 12.1356 16.0276 10.3188 15.9936C10.3189 15.9856 10.3085 15.9856 10.3033 15.9856ZM8.38528 12.8192C9.75053 12.0353 11.0897 11.2645 12.4472 10.4859C11.0794 9.70201 9.74272 8.9312 8.38528 8.15259V12.8192Z" fill="#F5F3F7"></path></svg>